<?xml version="1.0" encoding="utf-8"?>
<!-- Generator: Adobe Illustrator 24.0.0, SVG Export Plug-In . SVG Version: 6.00 Build 0)  -->
<svg version="1.1" id="Layer_1" xmlns="http://www.w3.org/2000/svg" xmlns:xlink="http://www.w3.org/1999/xlink" x="0px" y="0px"
	 viewBox="0 0 512 512" style="enable-background:new 0 0 512 512;" xml:space="preserve">
<style type="text/css">
	.st0{fill:#FFFFFF;}
</style>
<title>home</title>
<g>
	<path class="st0" d="M254.3,378.4l3.8-3.8c3.7-3.7,90.7-92.4,90.7-173c0-28.6-8.4-51.2-25-67.4c-26.4-25.6-63.7-25.3-66.8-25.2
		c-3.4-0.1-44.4-0.4-72.3,26.7c-16.5,16-24.8,38.2-24.8,65.8c0,80.6,87,169.3,90.7,173L254.3,378.4z M191.9,143.4
		c23.6-23,59.5-23.8,64.3-23.8c0.3,0,0.5,0,0.5,0h0.3c0.3-0.1,35.7-0.7,59.4,22.3c14.4,14,21.7,34.1,21.7,59.7
		c0,67-67.1,143.5-83.9,161.6c-16.8-18-83.9-94.5-83.9-161.6C170.4,176.9,177.6,157.3,191.9,143.4z"/>
	<polygon class="st0" points="349.4,310.5 324.2,310.5 324.2,321.1 340.9,321.1 359.6,404.9 261.2,404.9 250.7,404.9 152.4,404.9 
		171,321.1 187.8,321.1 187.8,310.5 162.5,310.5 139.2,415.5 250.7,415.5 261.2,415.5 372.8,415.5 	"/>
	<path class="st0" d="M296.3,203.5c0-23.2-18.8-42-42-42s-42,18.8-42,42s18.8,42,42,42C277.4,245.5,296.3,226.7,296.3,203.5z
		 M222.8,203.5c0-17.3,14.1-31.4,31.4-31.4s31.4,14.1,31.4,31.4s-14.1,31.4-31.4,31.4S222.8,220.8,222.8,203.5z"/>
</g>
</svg>
