<?xml version="1.0" encoding="utf-8"?>
<!-- Generator: Adobe Illustrator 24.0.0, SVG Export Plug-In . SVG Version: 6.00 Build 0)  -->
<svg version="1.1" id="Layer_1" xmlns="http://www.w3.org/2000/svg" xmlns:xlink="http://www.w3.org/1999/xlink" x="0px" y="0px"
	 viewBox="0 0 512 512" style="enable-background:new 0 0 512 512;" xml:space="preserve">
<style type="text/css">
	.st0{fill:#FFFFFF;}
</style>
<title>home</title>
<path class="st0" d="M372.1,161v-31.7c0-8.5-6.7-15.4-15.1-15.8c-5.4-1.5-41.6-10.6-101.1-10.6s-95.6,9.1-101.1,10.6
	c-8.4,0.4-15,7.3-15,15.8V161h-26.4v68.6h26.4v137.2c0,8.7,7.1,15.8,15.8,15.8h10.6v26.4h58.1v-26.4h68.6v26.4H351v-26.4h5.3
	c8.7,0,15.8-7.1,15.8-15.8V229.6h26.4V161H372.1z M139.9,219.1h-15.8v-47.5h15.8V219.1z M224.3,114.4c9.6-0.6,20.2-0.9,31.7-0.9
	c11.4,0,22,0.4,31.7,0.9v20.2c0,2.9-2.4,5.3-5.3,5.3h-52.8c-2.9,0-5.3-2.4-5.3-5.3V114.4z M213.8,398.5h-36.9v-15.8h36.9V398.5z
	 M218.1,314.1h75.8c-0.6,1.7-1,3.4-1,5.3v10.6c0,1.9,0.4,3.6,1,5.3h-75.8c0.6-1.7,1-3.4,1-5.3v-10.6
	C219.1,317.5,218.7,315.7,218.1,314.1z M271.8,345.7v26.4h-31.7v-26.4H271.8z M340.4,398.5h-36.9v-15.8h36.9V398.5z M361.6,366.8
	c0,2.9-2.4,5.3-5.3,5.3H351h-58.1h-10.6v-26.4h26.4h21.1c8.7,0,15.8-7.1,15.8-15.8v-10.6c0-8.7-7.1-15.8-15.8-15.8h-21.1H203.2
	h-21.1c-8.7,0-15.8,7.1-15.8,15.8v10.6c0,8.7,7.1,15.8,15.8,15.8h21.1h26.4v26.4h-5.3h-58.1h-10.6c-2.9,0-5.3-2.4-5.3-5.3V253.1
	c15.1,6.3,51.7,18.7,105.6,18.7c53.8,0,90.5-12.4,105.6-18.7V366.8z M303.5,329.9v-10.6c0-2.9,2.4-5.3,5.3-5.3h21.1
	c2.9,0,5.3,2.4,5.3,5.3v10.6c0,2.9-2.4,5.3-5.3,5.3h-21.1C305.9,335.2,303.5,332.8,303.5,329.9z M208.5,319.3v10.6
	c0,2.9-2.4,5.3-5.3,5.3h-21.1c-2.9,0-5.3-2.4-5.3-5.3v-10.6c0-2.9,2.4-5.3,5.3-5.3h21.1C206.1,314.1,208.5,316.4,208.5,319.3z
	 M361.6,161v68.6v11.9c-8.6,3.9-37.1,15.5-81.2,18.8c4.5-5.5,7.3-12.5,7.3-20.1l47.6-0.6l-0.1-10.6l-68.6,0.9l0.1,10.6l10.5-0.1
	c-0.1,11.5-9.5,20.9-21.1,20.9c-57.7,0-95.5-15.1-105.6-19.7v-11.9V161v-31.7c0-2.9,2.4-5.3,5.3-5.3l1.5-0.2
	c0.3-0.1,20.7-5.8,56.6-8.7v19.4c0,8.7,7.1,15.8,15.8,15.8h52.8c8.7,0,15.8-7.1,15.8-15.8v-19.4c35.9,2.9,56.3,8.6,56.6,8.7l1.4,0.2
	c2.9,0,5.3,2.4,5.3,5.3V161z M387.9,219.1h-15.8v-47.5h15.8V219.1z"/>
</svg>
