<?xml version="1.0" encoding="utf-8"?>
<!-- Generator: Adobe Illustrator 24.0.0, SVG Export Plug-In . SVG Version: 6.00 Build 0)  -->
<svg version="1.1" id="Layer_1" xmlns="http://www.w3.org/2000/svg" xmlns:xlink="http://www.w3.org/1999/xlink" x="0px" y="0px"
	 viewBox="0 0 512 512" style="enable-background:new 0 0 512 512;" xml:space="preserve">
<style type="text/css">
	.st0{fill:#FFFFFF;}
</style>
<title>home</title>
<path class="st0" d="M415.6,128H97.1c-13.7,0-25.5,13.3-25.5,27v210.8c0,13.7,11.9,24.7,25.5,24.7h318.5c13.7,0,24.7-11.1,24.7-24.7
	V155C440.4,141.3,429.3,128,415.6,128z M97.1,140.5h318.5c6.7,0,12.2,7.8,12.2,14.5v66.8H84.1v-18.1h100v-43.8h-100V155
	C84.1,148.2,90.4,140.5,97.1,140.5z M415.6,378H97.1c-6.7,0-13-5.5-13-12.2V234.2h343.8v31.3h-87.5V278h87.5v18.7h-62.5v12.5h62.5
	v56.5C427.9,372.5,422.4,378,415.6,378z"/>
</svg>
